<?xml version="1.0" ?><svg enable-background="new 0 0 32 32" version="1.1" viewBox="0 0 32 32" xml:space="preserve" xmlns="http://www.w3.org/2000/svg" xmlns:xlink="http://www.w3.org/1999/xlink"><g id="Layer_6"/><g id="Layer_4_copy_2"><g><circle cx="16" cy="16" fill="#D3D3D3" r="16"/><circle cx="16" cy="16" fill="#FFFFFF" r="13.809"/><circle cx="16" cy="16" r="11.597"/></g></g><g id="Official_copy_3"><g><path d="M10.48,12.482c-0.554,0-1.004,0.45-1.004,1.004V17.5c0,0.554,0.45,1.004,1.004,1.004    s1.004-0.45,1.004-1.004v-4.015C11.483,12.931,11.034,12.482,10.48,12.482z" fill="#FFFFFF"/><path d="M21.52,12.482c-0.554,0-1.004,0.45-1.004,1.004V17.5c0,0.554,0.45,1.004,1.004,1.004    c0.554,0,1.004-0.45,1.004-1.004v-4.015C22.524,12.931,22.074,12.482,21.52,12.482z" fill="#FFFFFF"/><path d="M11.985,20.511h1.004v2.509c0,0.554,0.45,1.004,1.004,1.004s1.004-0.45,1.004-1.004v-2.509h2.007v2.509    c0,0.554,0.45,1.004,1.004,1.004c0.554,0,1.004-0.45,1.004-1.004v-2.509h1.004v-7.528h-8.029V20.511z" fill="#FFFFFF"/><path d="M18.37,9.246l0.515-0.893c0.07-0.12,0.029-0.274-0.092-0.343c-0.119-0.07-0.274-0.029-0.343,0.092    l-0.502,0.87C17.371,8.651,16.708,8.467,16,8.467c-0.707,0-1.371,0.184-1.948,0.506l-0.503-0.871    c-0.07-0.12-0.222-0.161-0.343-0.092c-0.119,0.069-0.161,0.222-0.092,0.343l0.516,0.893c-0.995,0.731-1.645,1.906-1.645,3.236    h8.029C20.015,11.152,19.365,9.977,18.37,9.246z M14.494,10.976c-0.278,0-0.502-0.224-0.502-0.502    c0-0.278,0.224-0.502,0.502-0.502s0.502,0.224,0.502,0.502C14.996,10.752,14.772,10.976,14.494,10.976z M17.506,10.976    c-0.278,0-0.502-0.224-0.502-0.502c0-0.278,0.224-0.502,0.502-0.502s0.502,0.224,0.502,0.502    C18.007,10.752,17.783,10.976,17.506,10.976z" fill="#FFFFFF"/></g></g></svg>